<mxfile host="app.diagrams.net" modified="2021-04-06T07:20:03.816Z" agent="5.0 (Windows NT 6.1; Win64; x64) AppleWebKit/537.36 (KHTML, like Gecko) Chrome/87.0.4280.88 Safari/537.36" etag="x4pG8HRbfA3fyd7sbnI1" version="14.5.4" type="github">
  <diagram id="taQ7VdK2Xbz5WA_EDbCL" name="Page-1">
    <mxGraphModel dx="868" dy="393" grid="1" gridSize="10" guides="1" tooltips="1" connect="1" arrows="1" fold="1" page="1" pageScale="1" pageWidth="827" pageHeight="1169" math="0" shadow="0">
      <root>
        <mxCell id="0" />
        <mxCell id="1" parent="0" />
        <mxCell id="b7OWWv35G4zk7WAT0iNo-21" style="edgeStyle=orthogonalEdgeStyle;rounded=0;orthogonalLoop=1;jettySize=auto;html=1;exitX=0.5;exitY=1;exitDx=0;exitDy=0;entryX=0.5;entryY=0;entryDx=0;entryDy=0;" edge="1" parent="1" source="b7OWWv35G4zk7WAT0iNo-2" target="b7OWWv35G4zk7WAT0iNo-9">
          <mxGeometry relative="1" as="geometry" />
        </mxCell>
        <mxCell id="b7OWWv35G4zk7WAT0iNo-2" value="" style="rounded=0;whiteSpace=wrap;html=1;dashed=1;fillColor=#ffe6cc;strokeColor=#d79b00;" vertex="1" parent="1">
          <mxGeometry x="143" y="160" width="600" height="150" as="geometry" />
        </mxCell>
        <mxCell id="b7OWWv35G4zk7WAT0iNo-4" value="&lt;font style=&quot;font-size: 18px&quot;&gt;PARAFAC中的Fmax&lt;/font&gt;" style="rounded=1;whiteSpace=wrap;html=1;fillColor=#dae8fc;strokeColor=#6c8ebf;" vertex="1" parent="1">
          <mxGeometry x="155" y="230" width="175" height="60" as="geometry" />
        </mxCell>
        <mxCell id="b7OWWv35G4zk7WAT0iNo-5" value="&lt;font style=&quot;font-size: 20px&quot;&gt;PARAFAC输出数据&lt;/font&gt;" style="text;html=1;strokeColor=none;fillColor=none;align=center;verticalAlign=middle;whiteSpace=wrap;rounded=0;fontSize=20;" vertex="1" parent="1">
          <mxGeometry x="342.5" y="170" width="195" height="40" as="geometry" />
        </mxCell>
        <mxCell id="b7OWWv35G4zk7WAT0iNo-6" value="&lt;font style=&quot;font-size: 18px&quot;&gt;Ex/Em波长对&lt;/font&gt;" style="rounded=1;whiteSpace=wrap;html=1;fillColor=#dae8fc;strokeColor=#6c8ebf;" vertex="1" parent="1">
          <mxGeometry x="340" y="230" width="120" height="60" as="geometry" />
        </mxCell>
        <mxCell id="b7OWWv35G4zk7WAT0iNo-7" value="&lt;font style=&quot;font-size: 18px&quot;&gt;荧光组分百分比&lt;/font&gt;" style="rounded=1;whiteSpace=wrap;html=1;fillColor=#dae8fc;strokeColor=#6c8ebf;" vertex="1" parent="1">
          <mxGeometry x="600" y="230" width="130" height="60" as="geometry" />
        </mxCell>
        <mxCell id="b7OWWv35G4zk7WAT0iNo-8" value="&lt;font style=&quot;font-size: 18px&quot;&gt;原始EEM数据&lt;/font&gt;" style="rounded=1;whiteSpace=wrap;html=1;fillColor=#dae8fc;strokeColor=#6c8ebf;" vertex="1" parent="1">
          <mxGeometry x="470" y="230" width="120" height="60" as="geometry" />
        </mxCell>
        <mxCell id="b7OWWv35G4zk7WAT0iNo-22" style="edgeStyle=orthogonalEdgeStyle;rounded=0;orthogonalLoop=1;jettySize=auto;html=1;exitX=0.5;exitY=1;exitDx=0;exitDy=0;" edge="1" parent="1" source="b7OWWv35G4zk7WAT0iNo-9" target="b7OWWv35G4zk7WAT0iNo-15">
          <mxGeometry relative="1" as="geometry" />
        </mxCell>
        <mxCell id="b7OWWv35G4zk7WAT0iNo-9" value="" style="rounded=0;whiteSpace=wrap;html=1;dashed=1;fillColor=#ffe6cc;strokeColor=#d79b00;" vertex="1" parent="1">
          <mxGeometry x="143" y="360" width="600" height="150" as="geometry" />
        </mxCell>
        <mxCell id="b7OWWv35G4zk7WAT0iNo-10" value="&lt;font style=&quot;font-size: 18px&quot;&gt;数据初始化及标准化&lt;/font&gt;" style="rounded=1;whiteSpace=wrap;html=1;fillColor=#dae8fc;strokeColor=#6c8ebf;" vertex="1" parent="1">
          <mxGeometry x="155" y="430" width="175" height="60" as="geometry" />
        </mxCell>
        <mxCell id="b7OWWv35G4zk7WAT0iNo-11" value="&lt;font style=&quot;font-size: 20px&quot;&gt;SOM分析&lt;/font&gt;" style="text;html=1;strokeColor=none;fillColor=none;align=center;verticalAlign=middle;whiteSpace=wrap;rounded=0;" vertex="1" parent="1">
          <mxGeometry x="342.5" y="370" width="195" height="40" as="geometry" />
        </mxCell>
        <mxCell id="b7OWWv35G4zk7WAT0iNo-12" value="&lt;font style=&quot;font-size: 18px&quot;&gt;最优映射选择&lt;/font&gt;" style="rounded=1;whiteSpace=wrap;html=1;fillColor=#dae8fc;strokeColor=#6c8ebf;" vertex="1" parent="1">
          <mxGeometry x="340" y="430" width="120" height="60" as="geometry" />
        </mxCell>
        <mxCell id="b7OWWv35G4zk7WAT0iNo-13" value="&lt;font style=&quot;font-size: 18px&quot;&gt;U矩阵&lt;/font&gt;" style="rounded=1;whiteSpace=wrap;html=1;fillColor=#dae8fc;strokeColor=#6c8ebf;" vertex="1" parent="1">
          <mxGeometry x="600" y="430" width="130" height="60" as="geometry" />
        </mxCell>
        <mxCell id="b7OWWv35G4zk7WAT0iNo-14" value="&lt;font style=&quot;font-size: 18px&quot;&gt;BMU映射图&lt;/font&gt;" style="rounded=1;whiteSpace=wrap;html=1;fillColor=#dae8fc;strokeColor=#6c8ebf;" vertex="1" parent="1">
          <mxGeometry x="470" y="430" width="120" height="60" as="geometry" />
        </mxCell>
        <mxCell id="b7OWWv35G4zk7WAT0iNo-15" value="" style="rounded=0;whiteSpace=wrap;html=1;dashed=1;fillColor=#ffe6cc;strokeColor=#d79b00;" vertex="1" parent="1">
          <mxGeometry x="231.5" y="567" width="423" height="150" as="geometry" />
        </mxCell>
        <mxCell id="b7OWWv35G4zk7WAT0iNo-17" value="&lt;font style=&quot;font-size: 20px&quot;&gt;SOM可视化&lt;/font&gt;" style="text;html=1;strokeColor=none;fillColor=none;align=center;verticalAlign=middle;whiteSpace=wrap;rounded=0;" vertex="1" parent="1">
          <mxGeometry x="342" y="584" width="195" height="40" as="geometry" />
        </mxCell>
        <mxCell id="b7OWWv35G4zk7WAT0iNo-18" value="&lt;font style=&quot;font-size: 18px&quot;&gt;码本向量&lt;/font&gt;" style="rounded=1;whiteSpace=wrap;html=1;fillColor=#dae8fc;strokeColor=#6c8ebf;" vertex="1" parent="1">
          <mxGeometry x="249.5" y="637" width="120" height="60" as="geometry" />
        </mxCell>
        <mxCell id="b7OWWv35G4zk7WAT0iNo-19" value="&lt;font style=&quot;font-size: 18px&quot;&gt;K-means聚类&lt;/font&gt;" style="rounded=1;whiteSpace=wrap;html=1;fillColor=#dae8fc;strokeColor=#6c8ebf;" vertex="1" parent="1">
          <mxGeometry x="509.5" y="637" width="130" height="60" as="geometry" />
        </mxCell>
        <mxCell id="b7OWWv35G4zk7WAT0iNo-20" value="&lt;font style=&quot;font-size: 18px&quot;&gt;组件平面&lt;/font&gt;" style="rounded=1;whiteSpace=wrap;html=1;fillColor=#dae8fc;strokeColor=#6c8ebf;" vertex="1" parent="1">
          <mxGeometry x="379.5" y="637" width="120" height="60" as="geometry" />
        </mxCell>
      </root>
    </mxGraphModel>
  </diagram>
</mxfile>
